<?xml version="1.0" encoding="utf-8"?>
<!-- Generator: Adobe Illustrator 18.0.0, SVG Export Plug-In . SVG Version: 6.00 Build 0)  -->
<!DOCTYPE svg PUBLIC "-//W3C//DTD SVG 1.1//EN" "http://www.w3.org/Graphics/SVG/1.1/DTD/svg11.dtd">
<svg version="1.1" id="Camada_1" xmlns="http://www.w3.org/2000/svg" xmlns:xlink="http://www.w3.org/1999/xlink" x="0px" y="0px"
	 viewBox="0 0 22.2 22" enable-background="new 0 0 22.2 22" xml:space="preserve">
<path opacity="0.15" fill="#133657" d="M18.5,11l-8.3-8.4c-0.6-0.6-0.6-1.6,0-2.2c0.6-0.6,1.6-0.6,2.2,0l9.4,9.5
	c0.3,0.3,0.4,0.7,0.4,1.1c0,0.4-0.1,0.8-0.4,1.1l-9.4,9.5c-0.6,0.6-1.6,0.6-2.2,0c-0.6-0.6-0.6-1.6,0-2.2L18.5,11z M0.6,19.4
	C0,20,0,20.9,0.6,21.5c0.6,0.6,1.6,0.6,2.2,0l9.4-9.5c0.3-0.3,0.4-0.7,0.4-1.1c0-0.4-0.1-0.8-0.4-1.1L2.8,0.5
	c-0.6-0.6-1.6-0.6-2.2,0C0,1.1,0,2,0.6,2.6L9,11L0.6,19.4z"/>
<path fill="#FFFFFF" d="M18.3,11L10,2.6C9.4,2,9.4,1.1,10,0.5c0.6-0.6,1.6-0.6,2.2,0l9.4,9.5c0.3,0.3,0.4,0.7,0.4,1.1
	c0,0.4-0.1,0.8-0.4,1.1l-9.4,9.5c-0.6,0.6-1.6,0.6-2.2,0c-0.6-0.6-0.6-1.6,0-2.2L18.3,11z M0.4,19.4c-0.6,0.6-0.6,1.6,0,2.2
	c0.6,0.6,1.6,0.6,2.2,0l9.4-9.5c0.3-0.3,0.4-0.7,0.4-1.1c0-0.4-0.1-0.8-0.4-1.1L2.6,0.5C2-0.2,1-0.2,0.4,0.5c-0.6,0.6-0.6,1.6,0,2.2
	L8.8,11L0.4,19.4z"/>
</svg>
