<?xml version="1.0" encoding="utf-8"?>
<!-- Generator: Adobe Illustrator 18.0.0, SVG Export Plug-In . SVG Version: 6.00 Build 0)  -->
<!DOCTYPE svg PUBLIC "-//W3C//DTD SVG 1.1//EN" "http://www.w3.org/Graphics/SVG/1.1/DTD/svg11.dtd">
<svg version="1.1" id="Camada_1" xmlns="http://www.w3.org/2000/svg" xmlns:xlink="http://www.w3.org/1999/xlink" x="0px" y="0px"
	 viewBox="0 0 134.5 22" enable-background="new 0 0 134.5 22" xml:space="preserve">
<path fill="#FFFFFF" d="M3.7,11l8.3,8.4c0.6,0.6,0.6,1.6,0,2.2c-0.6,0.6-1.6,0.6-2.2,0l-9.4-9.5C0.1,11.8,0,11.4,0,11
	c0-0.4,0.1-0.8,0.4-1.1l9.4-9.5c0.6-0.6,1.6-0.6,2.2,0c0.6,0.6,0.6,1.6,0,2.2L3.7,11z M21.6,2.6c0.6-0.6,0.6-1.6,0-2.2
	c-0.6-0.6-1.6-0.6-2.2,0L10,9.9c-0.3,0.3-0.4,0.7-0.4,1.1c0,0.4,0.1,0.8,0.4,1.1l9.4,9.5c0.6,0.6,1.6,0.6,2.2,0
	c0.6-0.6,0.6-1.6,0-2.2L13.2,11L21.6,2.6z"/>
<g>
	<path fill="#FFFFFF" d="M50.2,2.5h4l-6.3,18.6h-4.3L37.3,2.5h4l3.5,11.1c0.2,0.7,0.4,1.4,0.6,2.3c0.2,0.9,0.3,1.5,0.4,1.8
		c0.1-0.8,0.4-2.1,1-4.1L50.2,2.5z"/>
	<path fill="#FFFFFF" d="M72.1,11.8c0,3.1-0.8,5.4-2.3,7.1c-1.5,1.7-3.7,2.5-6.6,2.5s-5-0.8-6.6-2.5c-1.5-1.7-2.3-4-2.3-7.1
		s0.8-5.5,2.3-7.1s3.7-2.4,6.6-2.4c2.9,0,5,0.8,6.6,2.5C71.4,6.3,72.1,8.7,72.1,11.8z M58.5,11.8c0,2.1,0.4,3.6,1.2,4.7
		s2,1.6,3.5,1.6c3.1,0,4.7-2.1,4.7-6.3c0-4.2-1.6-6.3-4.7-6.3c-1.6,0-2.8,0.5-3.5,1.6C58.9,8.1,58.5,9.7,58.5,11.8z"/>
	<path fill="#FFFFFF" d="M74.7,21.1V2.5h3.9v15.3h7.5v3.3H74.7z"/>
	<path fill="#FFFFFF" d="M95.3,21.1h-3.9V5.8h-5V2.5h14v3.3h-5V21.1z"/>
	<path fill="#FFFFFF" d="M113.2,21.1l-1.3-4.4h-6.8l-1.3,4.4h-4.2l6.6-18.7h4.8l6.6,18.7H113.2z M111,13.4c-1.2-4-1.9-6.3-2.1-6.8
		c-0.2-0.5-0.3-0.9-0.3-1.2c-0.3,1.1-1.1,3.8-2.4,8.1H111z"/>
	<path fill="#FFFFFF" d="M122.5,14v7.1h-3.9V2.5h5.4c2.5,0,4.4,0.5,5.6,1.4c1.2,0.9,1.8,2.3,1.8,4.2c0,1.1-0.3,2.1-0.9,2.9
		s-1.5,1.5-2.6,2c2.8,4.2,4.6,6.9,5.5,8.1H129l-4.4-7.1H122.5z M122.5,10.8h1.3c1.2,0,2.2-0.2,2.8-0.6c0.6-0.4,0.9-1.1,0.9-2
		c0-0.9-0.3-1.5-0.9-1.9c-0.6-0.4-1.5-0.6-2.8-0.6h-1.2V10.8z"/>
</g>
</svg>
