<?xml version="1.0" encoding="utf-8"?>
<!-- Generator: Adobe Illustrator 18.0.0, SVG Export Plug-In . SVG Version: 6.00 Build 0)  -->
<!DOCTYPE svg PUBLIC "-//W3C//DTD SVG 1.1//EN" "http://www.w3.org/Graphics/SVG/1.1/DTD/svg11.dtd">
<svg version="1.1" id="Camada_1" xmlns="http://www.w3.org/2000/svg" xmlns:xlink="http://www.w3.org/1999/xlink" x="0px" y="0px"
	 viewBox="0 0 21 21" enable-background="new 0 0 21 21" xml:space="preserve">
<path fill="#FFFFFF" d="M20.4,17.6l-4.8-4.8c-0.7,1.1-1.7,2.1-2.8,2.8l4.8,4.8c0.8,0.8,2,0.8,2.8,0C21.2,19.7,21.2,18.4,20.4,17.6z"
	/>
<path fill="#FFFFFF" d="M15.7,7.9c0-4.3-3.5-7.9-7.9-7.9C3.5,0,0,3.5,0,7.9c0,4.3,3.5,7.9,7.9,7.9C12.2,15.7,15.7,12.2,15.7,7.9z
	 M7.9,13.8C4.6,13.8,2,11.1,2,7.9C2,4.6,4.6,2,7.9,2c3.3,0,5.9,2.6,5.9,5.9C13.8,11.1,11.1,13.8,7.9,13.8z"/>
<path fill="#FFFFFF" d="M3.3,7.9h1.3c0-1.8,1.5-3.3,3.3-3.3V3.3C5.3,3.3,3.3,5.3,3.3,7.9z"/>
</svg>
