<?xml version="1.0" encoding="utf-8"?>
<!-- Generator: Adobe Illustrator 18.0.0, SVG Export Plug-In . SVG Version: 6.00 Build 0)  -->
<!DOCTYPE svg PUBLIC "-//W3C//DTD SVG 1.1//EN" "http://www.w3.org/Graphics/SVG/1.1/DTD/svg11.dtd">
<svg version="1.1" id="Camada_1" xmlns="http://www.w3.org/2000/svg" xmlns:xlink="http://www.w3.org/1999/xlink" x="0px" y="0px"
	 viewBox="0 0 19 23.8" enable-background="new 0 0 19 23.8" xml:space="preserve">
<path fill="#133657" d="M19,20.2c0,0.4-0.2,0.6-0.5,0.8l-3.6,2.4c-0.2,0.1-0.4,0.2-0.6,0.3c-0.2,0.1-0.5,0.1-0.7,0.1
	c0,0-0.1,0-0.1,0c-0.1,0-0.2,0-0.3,0c-0.3-0.1-0.7-0.2-1.4-0.4c-0.6-0.2-1.3-0.6-2.2-1.2c-0.8-0.6-1.8-1.4-2.8-2.4
	c-1-1-2-2.3-3.1-3.9c-0.8-1.3-1.5-2.4-2-3.5c-0.5-1.1-0.9-2.1-1.1-3C0.3,8.5,0.2,7.7,0.1,7C0,6.3,0,5.7,0,5.2c0-0.5,0.1-0.9,0.1-1.1
	c0.1-0.3,0.1-0.4,0.1-0.4C0.3,3.4,0.4,3.2,0.6,3c0.1-0.2,0.3-0.3,0.5-0.5l3.6-2.4C4.9,0,5.2,0,5.5,0c0.2,0,0.4,0.1,0.5,0.3
	c0.1,0.1,0.2,0.3,0.3,0.5l1.5,5.1c0.1,0.3,0.1,0.5,0,0.8C7.6,6.9,7.4,7.1,7.1,7.3L5.8,8.2c0,0-0.1,0.1-0.1,0.1
	c0,0.1-0.1,0.1-0.1,0.2c0,0.3,0.1,0.7,0.2,1.2c0.1,0.4,0.3,0.9,0.6,1.5c0.3,0.6,0.7,1.3,1.2,2.1c0.5,0.8,1,1.5,1.5,2
	c0.4,0.5,0.8,0.9,1.1,1.1c0.3,0.3,0.6,0.4,0.7,0.5l0.3,0.1c0,0,0.1,0,0.2,0c0.1,0,0.1,0,0.2,0l1.5-1c0.3-0.2,0.7-0.2,1-0.2
	c0.3,0.1,0.4,0.1,0.6,0.3l0,0l3.8,3.5C18.8,19.7,19,19.9,19,20.2z"/>
</svg>
