<?xml version="1.0" encoding="utf-8"?>
<!-- Generator: Adobe Illustrator 18.0.0, SVG Export Plug-In . SVG Version: 6.00 Build 0)  -->
<!DOCTYPE svg PUBLIC "-//W3C//DTD SVG 1.1//EN" "http://www.w3.org/Graphics/SVG/1.1/DTD/svg11.dtd">
<svg version="1.1" id="Camada_1" xmlns="http://www.w3.org/2000/svg" xmlns:xlink="http://www.w3.org/1999/xlink" x="0px" y="0px"
	 viewBox="0 0 32 28" enable-background="new 0 0 32 28" xml:space="preserve">
<path fill="#FFFFFF" d="M25.4,0H1.3C0.6,0,0,0.6,0,1.3v19.6c0,0.7,0.6,1.3,1.3,1.3h18l-1.4-1.6h-3.3v-2h1.7l0,0
	c-0.4-0.5-0.7-1-0.9-1.5H3V5.1h20.6V17h-2.8c0.4,0.4,0.9,0.9,1.2,1.2c0.3-0.2,0.6-0.5,0.9-0.8c1.2-0.9,2.3-1.5,3.4-1.6
	c0.1,0,0.2,0,0.3,0V1.3C26.7,0.6,26.1,0,25.4,0z M8.9,18.5h3.2v2H8.9V18.5z M3.1,18.5h3.2v2H3.1V18.5z M6.4,3.6H3.1v-2h3.2V3.6z
	 M12.1,3.6H8.9v-2h3.2V3.6z M17.8,3.6h-3.2v-2h3.2V3.6z M23.5,3.6h-3.2v-2h3.2V3.6z"/>
<path fill="#FFFFFF" d="M31.9,22.2c-0.3-1.7-1.4-3.2-2-4c-0.8-1.1-1.9-1.5-3.2-1.3c-0.9,0.2-1.9,0.6-2.9,1.4
	c-0.7,0.6-1.3,1.1-1.5,1.4c-0.6-0.5-2.3-2.2-3.1-3.2c-0.4-0.5-1.5-1.5-2.3-0.8c-0.9,0.8,0.4,2.2,0.4,2.2l5.1,6.2c0,0,0,0.1-0.1,0.1
	c-0.5,0.4-1.9-0.3-2.5-0.7c-0.5-0.3-1.4-0.3-1.9,0c-0.2,0.1-0.3,0.3-0.3,0.5c0,0.3,0.2,0.6,0.6,0.9c0,0,0,0,0,0
	c0.6,0.5,2.1,1.7,4.2,2.4c1.3,0.5,2.6,0.7,3.8,0.6c1.5-0.1,2.9-0.7,4.1-1.6C31.7,25.3,32.2,23.9,31.9,22.2z"/>
<path fill="#FFFFFF" d="M12.1,6.8c-0.2-0.2-0.5-0.2-0.7-0.1C11.2,6.9,11,7.1,11,7.3v6.8c0,0.3,0.1,0.5,0.4,0.6
	c0.1,0,0.2,0.1,0.3,0.1c0.2,0,0.3-0.1,0.4-0.2l4.1-3.4c0.1-0.1,0.2-0.3,0.2-0.5c0-0.2-0.1-0.4-0.2-0.5L12.1,6.8z"/>
</svg>
