<?xml version="1.0" encoding="utf-8"?>
<!-- Generator: Adobe Illustrator 18.0.0, SVG Export Plug-In . SVG Version: 6.00 Build 0)  -->
<!DOCTYPE svg PUBLIC "-//W3C//DTD SVG 1.1//EN" "http://www.w3.org/Graphics/SVG/1.1/DTD/svg11.dtd">
<svg version="1.1" id="Camada_1" xmlns="http://www.w3.org/2000/svg" xmlns:xlink="http://www.w3.org/1999/xlink" x="0px" y="0px"
	 viewBox="0 0 24 37" enable-background="new 0 0 24 37" xml:space="preserve">
<path fill="#FFFFFF" d="M12,0C5.4,0,0,5.5,0,12.2c0,2.7,1.7,7.1,5.2,13.5c2.5,4.5,4.9,8.3,5,8.5L12,37l1.8-2.8
	c0.1-0.2,2.5-3.9,5-8.5C22.3,19.4,24,15,24,12.2C24,5.5,18.6,0,12,0z M12,18.5c-3.4,0-6.2-2.8-6.2-6.3c0-3.5,2.8-6.3,6.2-6.3
	c3.4,0,6.2,2.8,6.2,6.3C18.2,15.7,15.4,18.5,12,18.5z"/>
</svg>
