<?xml version="1.0" encoding="utf-8"?>
<!-- Generator: Adobe Illustrator 18.0.0, SVG Export Plug-In . SVG Version: 6.00 Build 0)  -->
<!DOCTYPE svg PUBLIC "-//W3C//DTD SVG 1.1//EN" "http://www.w3.org/Graphics/SVG/1.1/DTD/svg11.dtd">
<svg version="1.1" id="Camada_1" xmlns="http://www.w3.org/2000/svg" xmlns:xlink="http://www.w3.org/1999/xlink" x="0px" y="0px"
	 viewBox="0 0 27 24" enable-background="new 0 0 27 24" xml:space="preserve">
<path fill="#133657" d="M14.6,17.3c-0.3,0.3-0.3,0.9,0,1.2c0.3,0.3,0.9,0.3,1.2,0l5.8-5.9c0.2-0.2,0.3-0.4,0.2-0.6
	c0-0.2-0.1-0.5-0.2-0.6l-5.8-5.9c-0.3-0.3-0.9-0.3-1.2,0c-0.3,0.3-0.3,0.9,0,1.2l4.4,4.5H0.8C0.4,11.1,0,11.5,0,12
	c0,0.5,0.4,0.9,0.8,0.9h18.2L14.6,17.3z M23.6,0H6.7C4.9,0,3.4,1.5,3.4,3.4v3.4h1.7V3.4c0-0.9,0.8-1.7,1.7-1.7h16.9
	c0.9,0,1.7,0.8,1.7,1.7v17.1c0,0.9-0.8,1.7-1.7,1.7H6.7c-0.9,0-1.7-0.8-1.7-1.7v-3.4H3.4v3.4c0,1.9,1.5,3.4,3.4,3.4h16.9
	c1.9,0,3.4-1.5,3.4-3.4V3.4C27,1.5,25.5,0,23.6,0z"/>
</svg>
