<?xml version="1.0" encoding="utf-8"?>
<!-- Generator: Adobe Illustrator 18.0.0, SVG Export Plug-In . SVG Version: 6.00 Build 0)  -->
<!DOCTYPE svg PUBLIC "-//W3C//DTD SVG 1.1//EN" "http://www.w3.org/Graphics/SVG/1.1/DTD/svg11.dtd">
<svg version="1.1" id="Camada_1" xmlns="http://www.w3.org/2000/svg" xmlns:xlink="http://www.w3.org/1999/xlink" x="0px" y="0px"
	 viewBox="0 0 22 22" enable-background="new 0 0 22 22" xml:space="preserve">
<path fill="#133657" d="M3.7,11l8.3,8.4c0.6,0.6,0.6,1.6,0,2.2c-0.6,0.6-1.6,0.6-2.2,0l-9.4-9.5C0.1,11.8,0,11.4,0,11
	c0-0.4,0.1-0.8,0.4-1.1l9.4-9.5c0.6-0.6,1.6-0.6,2.2,0c0.6,0.6,0.6,1.6,0,2.2L3.7,11z M21.6,2.6c0.6-0.6,0.6-1.6,0-2.2
	c-0.6-0.6-1.6-0.6-2.2,0L10,9.9c-0.3,0.3-0.4,0.7-0.4,1.1c0,0.4,0.1,0.8,0.4,1.1l9.4,9.5c0.6,0.6,1.6,0.6,2.2,0
	c0.6-0.6,0.6-1.6,0-2.2L13.2,11L21.6,2.6z"/>
</svg>
